<svg width="92" height="48" viewBox="0 0 92 48" fill="none" xmlns="http://www.w3.org/2000/svg">
<path fill-rule="evenodd" clip-rule="evenodd" d="M74.1312 5.61726C83.9999 5.61726 92 13.6174 92 23.4859C92 33.3544 83.9999 41.3547 74.1312 41.3547C69.3947 41.3547 65.089 39.5113 61.8912 36.5034C59.516 34.0911 56.4895 32.5953 52.5607 32.5953C48.6319 32.5953 44.6108 34.5757 42.2149 37.6563C37.7607 43.5343 30.8639 46.9717 23.4859 46.9717C10.515 46.9717 0 36.4566 0 23.4859C0 10.515 10.515 0 23.4859 0C31.1953 0 38.0371 3.71486 42.319 9.45207C44.7355 12.4703 48.6961 14.363 52.5609 14.363C56.4518 14.363 59.5071 12.8802 61.8811 10.4786C65.2066 7.34533 69.5613 5.61726 74.1312 5.61726Z" fill="#D83235"/>
<path d="M12.331 22.8092H9.15256L8.5464 24.2761H6.92261L9.97391 17.4299H11.5388L14.5999 24.2761H12.9375L12.331 22.8092ZM11.8322 21.6062L10.7467 18.9852L9.66121 21.6062H11.8322ZM17.8081 21.5867L16.8887 22.5451V24.2761H15.3141V17.4299H16.8887V20.6279L19.9206 17.4299H21.6808L18.8448 20.4813L21.8474 24.2761H19.999L17.8081 21.5867ZM24.1357 18.7015V20.511H27.3045V21.7822H24.1357V24.2761H22.5514V17.4299H27.725V18.7015H24.1357ZM33.0257 22.8092H29.8472L29.2411 24.2761H27.6174L30.6686 17.4299H32.2335L35.2946 24.2761H33.6322L33.0257 22.8092ZM32.5269 21.6062L31.4414 18.9852L30.3559 21.6062H32.5269ZM45.0064 24.2761L44.9967 20.1686L42.982 23.5526H42.2683L40.263 20.2566V24.2761H38.7766V17.4301H40.0871L42.6493 21.6843L45.173 17.4301H46.4734L46.4932 24.2761H45.0064ZM53.4174 23.0045V24.2761H48.1166V17.4301H53.2902V18.7015H49.6913V20.188H52.8698V21.4202H49.6913V23.0045H53.4174ZM54.6791 17.4301H57.7894C58.5324 17.4301 59.1892 17.572 59.7599 17.8556C60.3305 18.1391 60.7736 18.5385 61.0899 19.0535C61.4062 19.5687 61.5642 20.1686 61.5642 20.8531C61.5642 21.5376 61.4062 22.1375 61.0899 22.6528C60.7736 23.1675 60.3305 23.5671 59.7599 23.8506C59.1892 24.1341 58.5324 24.2761 57.7894 24.2761H54.6791V17.4301ZM57.711 22.9753C58.3955 22.9753 58.9415 22.7847 59.3492 22.4032C59.7568 22.0217 59.9604 21.5052 59.9604 20.8531C59.9604 20.2013 59.7568 19.6845 59.3492 19.303C58.9415 18.9216 58.3955 18.7309 57.711 18.7309H56.2634V22.9753H57.711ZM62.7574 17.4301H64.3417V22.9852H67.7746V24.2761H62.7574V17.4301ZM68.6647 17.4301H70.249V24.2761H68.6647V17.4301ZM78.1514 17.4301V24.2761H76.8506L73.4373 20.1199V24.2761H71.8724V17.4301H73.183L76.5865 21.5868V17.4301H78.1514ZM85.0755 23.0045V24.2761H79.7748V17.4301H84.9484V18.7015H81.3494V20.188H84.5279V21.4202H81.3494V23.0045H85.0755Z" fill="white"/>
<path d="M8.39826 29.5423C7.96139 29.5423 7.6209 29.4172 7.37674 29.1668C7.13258 28.916 7.0105 28.5517 7.0105 28.0727V26.1407H7.36699V28.0582C7.36699 28.4503 7.45552 28.7428 7.63222 28.9354C7.80887 29.1282 8.06395 29.2245 8.39826 29.2245C8.73529 29.2245 8.99233 29.1282 9.16898 28.9354C9.34557 28.7428 9.43418 28.4503 9.43418 28.0582V26.1407H9.78095V28.0727C9.78095 28.5517 9.65968 28.916 9.41714 29.1668C9.17489 29.4172 8.83507 29.5423 8.39826 29.5423ZM15.0455 26.1407V29.5136H14.7514L12.5831 26.7766V29.5136H12.2266V26.1407H12.5207L14.6936 28.8774V26.1407H15.0455ZM17.5149 26.1407H17.8712V29.5136H17.5149V26.1407ZM23.1069 26.1407L21.6131 29.5136H21.2611L19.7676 26.1407H20.1531L21.4444 29.0704L22.7453 26.1407H23.1069ZM27.3494 29.2049V29.5134H24.9643V26.1407H27.2772V26.4489H25.3208V27.6486H27.0651V27.9526H25.3208V29.2049H27.3494ZM31.862 29.5134L31.0907 28.4295C31.0042 28.4389 30.9145 28.444 30.8212 28.444H29.9151V29.5134H29.5586V26.1407H30.8212C31.2514 26.1407 31.5889 26.2432 31.833 26.4489C32.0771 26.6549 32.1992 26.9371 32.1992 27.2972C32.1992 27.5605 32.1326 27.7829 31.9992 27.9646C31.8657 28.146 31.6754 28.2767 31.4281 28.357L32.2523 29.5134H31.862ZM30.8115 28.1401C31.1454 28.1401 31.4008 28.0663 31.5775 27.9185C31.7543 27.7707 31.8427 27.5636 31.8427 27.2972C31.8427 27.0241 31.7543 26.8143 31.5775 26.6685C31.4008 26.5222 31.1454 26.4489 30.8115 26.4489H29.9151V28.1401H30.8115ZM35.3431 29.5423C35.0926 29.5423 34.8524 29.5022 34.623 29.4218C34.3933 29.3415 34.2157 29.2357 34.0906 29.104L34.2303 28.8294C34.3523 28.9515 34.5145 29.0501 34.7166 29.1257C34.919 29.201 35.1281 29.2389 35.343 29.2389C35.6449 29.2389 35.8716 29.1834 36.0224 29.0727C36.1734 28.9619 36.249 28.818 36.249 28.6413C36.249 28.5064 36.2081 28.3987 36.1262 28.3184C36.0443 28.2384 35.9437 28.1763 35.8251 28.1331C35.7061 28.0898 35.5406 28.0421 35.3286 27.9907C35.0751 27.9268 34.8726 27.8647 34.7216 27.8055C34.5706 27.7461 34.4411 27.6553 34.3336 27.5331C34.2264 27.4111 34.1725 27.2457 34.1725 27.0371C34.1725 26.8666 34.2172 26.7118 34.307 26.5717C34.3972 26.432 34.5352 26.3206 34.7216 26.237C34.9077 26.1535 35.139 26.1118 35.4155 26.1118C35.6081 26.1118 35.7969 26.1384 35.9815 26.1915C36.1664 26.244 36.3259 26.3175 36.4608 26.4106L36.3403 26.6947C36.1992 26.6017 36.0482 26.532 35.8876 26.4852C35.7268 26.4387 35.5695 26.4153 35.4155 26.4153C35.1199 26.4153 34.8976 26.4723 34.7482 26.5866C34.5986 26.7005 34.5238 26.8476 34.5238 27.0273C34.5238 27.1623 34.5647 27.2707 34.6468 27.3526C34.7286 27.4345 34.8315 27.4969 34.9552 27.5402C35.0788 27.5839 35.245 27.6311 35.4536 27.6825C35.7013 27.7435 35.901 27.8039 36.0535 27.8632C36.2065 27.9224 36.3356 28.0126 36.4417 28.1331C36.5477 28.2535 36.6008 28.4167 36.6008 28.6222C36.6008 28.7922 36.5549 28.9474 36.4631 29.0871C36.3719 29.2268 36.2311 29.3376 36.042 29.4195C35.8522 29.5014 35.6197 29.5423 35.3431 29.5423ZM38.7474 26.1407H39.1038V29.5134H38.7474V26.1407ZM42.229 26.4489H41.0435V26.1407H43.7708V26.4489H42.5855V29.5134H42.229V26.4489ZM46.8428 28.3476V29.5134H46.4909V28.3476L45.1418 26.1407H45.5225L46.6789 28.0345L47.8355 26.1407H48.1919L46.8428 28.3476ZM54.1978 26.1407V29.5134H53.8461V27.9573H51.7354V29.5134H51.379V26.1407H51.7354V27.6439H53.8461V26.1407H54.1978ZM58.1417 29.5423C57.8078 29.5423 57.5051 29.4678 57.2336 29.3184C56.9622 29.169 56.7499 28.9643 56.5974 28.7041C56.4449 28.4439 56.3685 28.1515 56.3685 27.8269C56.3685 27.5028 56.4449 27.2103 56.5974 26.9502C56.7499 26.69 56.9622 26.4852 57.2336 26.3359C57.5051 26.1864 57.8078 26.112 58.1417 26.112C58.476 26.112 58.777 26.1856 59.045 26.3336C59.3133 26.4814 59.5247 26.6861 59.6788 26.9479C59.8329 27.2095 59.9101 27.5028 59.9101 27.8269C59.9101 28.1515 59.8328 28.4447 59.6788 28.7064C59.5247 28.9682 59.3133 29.1729 59.045 29.3207C58.777 29.4686 58.476 29.5423 58.1417 29.5423ZM58.1417 29.2245C58.4085 29.2245 58.6491 29.164 58.8645 29.0438C59.0797 28.9233 59.2483 28.7564 59.3703 28.5427C59.4924 28.3289 59.5537 28.0906 59.5537 27.8269C59.5537 27.5636 59.4924 27.3254 59.3703 27.1117C59.2483 26.8979 59.0797 26.731 58.8645 26.6103C58.6491 26.4898 58.4085 26.4298 58.1417 26.4298C57.8753 26.4298 57.6334 26.4898 57.4166 26.6103C57.1997 26.731 57.0297 26.8979 56.9059 27.1117C56.7823 27.3254 56.7204 27.5636 56.7204 27.8269C56.7204 28.0906 56.7823 28.3289 56.9059 28.5427C57.0297 28.7564 57.1997 28.9233 57.4166 29.0438C57.6334 29.164 57.8753 29.2245 58.1417 29.2245ZM63.0106 29.5423C62.7602 29.5423 62.5199 29.5022 62.2906 29.4218C62.0608 29.3415 61.8834 29.2357 61.7582 29.104L61.8978 28.8294C62.0198 28.9515 62.1822 29.0501 62.3841 29.1257C62.5866 29.201 62.7957 29.2389 63.0106 29.2389C63.3124 29.2389 63.5391 29.1834 63.6899 29.0727C63.8409 28.9619 63.9165 28.818 63.9165 28.6413C63.9165 28.5064 63.8757 28.3987 63.7937 28.3184C63.7118 28.2384 63.6111 28.1763 63.4925 28.1331C63.3736 28.0898 63.2083 28.0421 62.9961 27.9907C62.7426 27.9268 62.54 27.8647 62.3892 27.8055C62.2381 27.7461 62.1087 27.6553 62.0011 27.5331C61.8939 27.4111 61.8399 27.2457 61.8399 27.0371C61.8399 26.8666 61.8848 26.7118 61.9745 26.5717C62.0647 26.432 62.2026 26.3206 62.3892 26.237C62.5752 26.1535 62.8066 26.1118 63.0831 26.1118C63.2758 26.1118 63.4646 26.1384 63.649 26.1915C63.8338 26.244 63.9934 26.3175 64.1284 26.4106L64.0079 26.6947C63.8667 26.6017 63.7159 26.532 63.555 26.4852C63.3944 26.4387 63.2372 26.4153 63.0831 26.4153C62.7874 26.4153 62.5651 26.4723 62.4157 26.5866C62.2663 26.7005 62.1914 26.8476 62.1914 27.0273C62.1914 27.1623 62.2323 27.2707 62.3142 27.3526C62.3961 27.4345 62.4991 27.4969 62.6227 27.5402C62.7465 27.5839 62.9126 27.6311 63.1212 27.6825C63.3689 27.7435 63.5686 27.8039 63.7212 27.8632C63.8742 27.9224 64.0032 28.0126 64.1092 28.1331C64.2153 28.2535 64.2684 28.4167 64.2684 28.6222C64.2684 28.7922 64.2223 28.9474 64.1308 29.0871C64.0395 29.2268 63.8987 29.3376 63.7094 29.4195C63.5199 29.5014 63.287 29.5423 63.0106 29.5423ZM67.6775 26.1407C68.1078 26.1407 68.4452 26.2432 68.6893 26.4489C68.9335 26.6549 69.0556 26.9371 69.0556 27.2972C69.0556 27.6569 68.9335 27.9388 68.6893 28.1429C68.4452 28.3468 68.1078 28.4487 67.6775 28.4487H66.7715V29.5134H66.415V26.1407H67.6775ZM67.6677 28.1354C68.0017 28.1354 68.2572 28.0624 68.4338 27.9162C68.6105 27.7699 68.6991 27.5636 68.6991 27.2972C68.6991 27.0241 68.6105 26.8143 68.4338 26.6685C68.2572 26.5222 68.0017 26.4489 67.6677 26.4489H66.7715V28.1354H67.6677ZM71.1973 26.1407H71.5538V29.5134H71.1973V26.1407ZM74.6789 26.4489H73.4934V26.1407H76.2207V26.4489H75.0352V29.5134H74.6789V26.4489ZM80.1068 28.6125H78.2279L77.823 29.5134H77.4521L78.9939 26.1407H79.3454L80.8872 29.5134H80.5117L80.1068 28.6125ZM79.9769 28.3234L79.1671 26.5116L78.3578 28.3234H79.9769ZM82.8172 26.1407H83.1736V29.2049H85.0627V29.5134H82.8172V26.1407Z" fill="white"/>
</svg>
