<svg width="40" height="40" viewBox="0 0 40 40" fill="none" xmlns="http://www.w3.org/2000/svg">
<path d="M0 20C0 8.95431 8.95431 0 20 0C31.0457 0 40 8.95431 40 20C40 31.0457 31.0457 40 20 40C8.95431 40 0 31.0457 0 20Z" fill="#D83235"/>
<path fill-rule="evenodd" clip-rule="evenodd" d="M29.7848 13.9538C33.2173 13.9538 36 16.7365 36 20.169C36 23.6015 33.2173 26.3843 29.7848 26.3843C28.1373 26.3843 26.6397 25.7431 25.5274 24.6968C24.7012 23.8578 23.6485 23.3375 22.282 23.3375C20.9154 23.3375 19.5168 24.0263 18.6835 25.0979C17.1341 27.1424 14.7353 28.338 12.169 28.338C7.65738 28.338 4 24.6806 4 20.169C4 15.6574 7.65738 12 12.169 12C14.8505 12 17.2303 13.2921 18.7197 15.2877C19.5602 16.3375 20.9378 16.9958 22.282 16.9958C23.6354 16.9958 24.6981 16.4801 25.5238 15.6447C26.6805 14.5549 28.1952 13.9538 29.7848 13.9538Z" fill="white"/>
<path d="M8.28907 19.9335H7.18353L6.9727 20.4438H6.4079L7.46922 18.0625H8.01354L9.07827 20.4438H8.50003L8.28907 19.9335ZM8.11557 19.5151L7.73801 18.6035L7.36046 19.5151H8.11557ZM10.1941 19.5083L9.87437 19.8417V20.4438H9.32668V18.0625H9.87437V19.1748L10.9289 18.0625H11.5412L10.5547 19.1239L11.5991 20.4438H10.9562L10.1941 19.5083ZM12.3951 18.5048V19.1342H13.4973V19.5763H12.3951V20.4438H11.844V18.0625H13.6435V18.5048H12.3951ZM15.4872 19.9335H14.3817L14.1708 20.4438H13.6061L14.6674 18.0625H15.2117L16.2764 20.4438H15.6982L15.4872 19.9335ZM15.3137 19.5151L14.9362 18.6035L14.5586 19.5151H15.3137ZM19.6544 20.4438L19.6511 19.0151L18.9503 20.1921H18.7021L18.0046 19.0457V20.4438H17.4875V18.0626H17.9434L18.8346 19.5423L19.7124 18.0626H20.1647L20.1716 20.4438H19.6544ZM22.58 20.0015V20.4438H20.7362V18.0626H22.5357V18.5048H21.284V19.0218H22.3895V19.4504H21.284V20.0015H22.58ZM23.0189 18.0626H24.1007C24.3591 18.0626 24.5876 18.1119 24.7861 18.2106C24.9845 18.3092 25.1387 18.4481 25.2487 18.6272C25.3587 18.8064 25.4137 19.0151 25.4137 19.2532C25.4137 19.4912 25.3587 19.6999 25.2487 19.8791C25.1387 20.0582 24.9845 20.1972 24.7861 20.2958C24.5876 20.3944 24.3591 20.4438 24.1007 20.4438H23.0189V18.0626ZM24.0734 19.9913C24.3115 19.9913 24.5014 19.925 24.6432 19.7923C24.785 19.6596 24.8558 19.48 24.8558 19.2532C24.8558 19.0265 24.785 18.8467 24.6432 18.714C24.5014 18.5813 24.3115 18.515 24.0734 18.515H23.5699V19.9913H24.0734ZM25.8287 18.0626H26.3798V19.9947H27.5738V20.4438H25.8287V18.0626ZM27.8834 18.0626H28.4345V20.4438H27.8834V18.0626ZM31.1831 18.0626V20.4438H30.7307L29.5434 18.9981V20.4438H28.9991V18.0626H29.455L30.6388 19.5084V18.0626H31.1831ZM33.5915 20.0015V20.4438H31.7478V18.0626H33.5473V18.5048H32.2955V19.0218H33.401V19.4504H32.2955V20.0015H33.5915Z" fill="#D83235"/>
<path d="M6.92124 22.2755C6.76928 22.2755 6.65085 22.232 6.56593 22.1449C6.481 22.0576 6.43854 21.9309 6.43854 21.7643V21.0923H6.56253V21.7593C6.56253 21.8957 6.59333 21.9974 6.65479 22.0644C6.71623 22.1315 6.80496 22.1649 6.92124 22.1649C7.03847 22.1649 7.12787 22.1315 7.18931 22.0644C7.25074 21.9974 7.28156 21.8957 7.28156 21.7593V21.0923H7.40217V21.7643C7.40217 21.9309 7.35999 22.0576 7.27563 22.1449C7.19137 22.232 7.07317 22.2755 6.92124 22.2755ZM9.23332 21.0923V22.2655H9.13102L8.37683 21.3135V22.2655H8.25285V21.0923H8.35514L9.11091 22.0442V21.0923H9.23332ZM10.0923 21.0923H10.2162V22.2655H10.0923V21.0923ZM12.0373 21.0923L11.5177 22.2655H11.3953L10.8758 21.0923H11.0099L11.459 22.1113L11.9115 21.0923H12.0373ZM13.5129 22.1581V22.2654H12.6834V21.0923H13.4878V21.1995H12.8073V21.6168H13.4141V21.7225H12.8073V22.1581H13.5129ZM15.0825 22.2654L14.8143 21.8884C14.7842 21.8917 14.753 21.8935 14.7205 21.8935H14.4054V22.2654H14.2814V21.0923H14.7205C14.8702 21.0923 14.9876 21.128 15.0725 21.1995C15.1574 21.2712 15.1998 21.3693 15.1998 21.4946C15.1998 21.5862 15.1767 21.6635 15.1302 21.7267C15.0838 21.7898 15.0176 21.8353 14.9316 21.8632L15.2183 22.2654H15.0825ZM14.7171 21.7878C14.8333 21.7878 14.9221 21.7621 14.9836 21.7107C15.0451 21.6593 15.0758 21.5872 15.0758 21.4946C15.0758 21.3996 15.0451 21.3266 14.9836 21.2759C14.9221 21.225 14.8333 21.1995 14.7171 21.1995H14.4054V21.7878H14.7171ZM16.2934 22.2755C16.2062 22.2755 16.1227 22.2615 16.0429 22.2336C15.963 22.2057 15.9012 22.1689 15.8577 22.123L15.9063 22.0275C15.9487 22.07 16.0052 22.1043 16.0754 22.1306C16.1458 22.1568 16.2186 22.1699 16.2933 22.1699C16.3983 22.1699 16.4772 22.1506 16.5296 22.1122C16.5822 22.0736 16.6085 22.0236 16.6085 21.9621C16.6085 21.9152 16.5942 21.8777 16.5657 21.8498C16.5373 21.822 16.5022 21.8004 16.461 21.7853C16.4196 21.7703 16.3621 21.7537 16.2883 21.7358C16.2001 21.7136 16.1297 21.692 16.0772 21.6714C16.0247 21.6507 15.9796 21.6192 15.9422 21.5766C15.9049 21.5342 15.8862 21.4767 15.8862 21.4041C15.8862 21.3448 15.9017 21.2909 15.933 21.2422C15.9643 21.1937 16.0123 21.1549 16.0772 21.1258C16.1419 21.0968 16.2224 21.0823 16.3185 21.0823C16.3855 21.0823 16.4512 21.0915 16.5154 21.11C16.5797 21.1283 16.6352 21.1538 16.6821 21.1862L16.6402 21.285C16.5911 21.2527 16.5386 21.2284 16.4827 21.2121C16.4268 21.196 16.3721 21.1878 16.3185 21.1878C16.2157 21.1878 16.1384 21.2077 16.0864 21.2474C16.0344 21.287 16.0084 21.3382 16.0084 21.4007C16.0084 21.4477 16.0226 21.4854 16.0511 21.5139C16.0796 21.5423 16.1154 21.564 16.1584 21.5791C16.2014 21.5943 16.2592 21.6107 16.3318 21.6286C16.4179 21.6498 16.4874 21.6708 16.5405 21.6914C16.5937 21.712 16.6386 21.7434 16.6755 21.7853C16.7123 21.8272 16.7308 21.884 16.7308 21.9555C16.7308 22.0146 16.7148 22.0686 16.6829 22.1172C16.6512 22.1658 16.6022 22.2043 16.5364 22.2328C16.4705 22.2613 16.3896 22.2755 16.2934 22.2755ZM17.4775 21.0923H17.6014V22.2654H17.4775V21.0923ZM18.6884 21.1995H18.2761V21.0923H19.2247V21.1995H18.8124V22.2654H18.6884V21.1995ZM20.2933 21.8599V22.2654H20.1708V21.8599L19.7016 21.0923H19.834L20.2362 21.751L20.6385 21.0923H20.7625L20.2933 21.8599ZM22.8515 21.0923V22.2654H22.7292V21.7242H21.995V22.2654H21.8711V21.0923H21.995V21.6152H22.7292V21.0923H22.8515ZM24.2233 22.2755C24.1072 22.2755 24.0019 22.2496 23.9074 22.1976C23.813 22.1456 23.7392 22.0744 23.6862 21.9839C23.6331 21.8934 23.6065 21.7917 23.6065 21.6788C23.6065 21.5661 23.6331 21.4643 23.6862 21.3739C23.7392 21.2834 23.813 21.2121 23.9074 21.1602C24.0019 21.1082 24.1072 21.0823 24.2233 21.0823C24.3396 21.0823 24.4443 21.1079 24.5375 21.1594C24.6308 21.2108 24.7044 21.282 24.758 21.3731C24.8116 21.4641 24.8384 21.5661 24.8384 21.6788C24.8384 21.7917 24.8115 21.8937 24.758 21.9847C24.7044 22.0758 24.6308 22.147 24.5375 22.1984C24.4443 22.2498 24.3396 22.2755 24.2233 22.2755ZM24.2233 22.1649C24.3161 22.1649 24.3998 22.1439 24.4747 22.1021C24.5496 22.0602 24.6082 22.0021 24.6507 21.9278C24.6931 21.8534 24.7144 21.7705 24.7144 21.6788C24.7144 21.5872 24.6931 21.5044 24.6507 21.43C24.6082 21.3557 24.5496 21.2976 24.4747 21.2557C24.3998 21.2138 24.3161 21.1929 24.2233 21.1929C24.1306 21.1929 24.0465 21.2138 23.9711 21.2557C23.8957 21.2976 23.8365 21.3557 23.7935 21.43C23.7505 21.5044 23.7289 21.5872 23.7289 21.6788C23.7289 21.7705 23.7505 21.8534 23.7935 21.9278C23.8365 22.0021 23.8957 22.0602 23.9711 22.1021C24.0465 22.1439 24.1306 22.1649 24.2233 22.1649ZM25.9168 22.2755C25.8298 22.2755 25.7462 22.2615 25.6664 22.2336C25.5865 22.2057 25.5248 22.1689 25.4812 22.123L25.5298 22.0275C25.5722 22.07 25.6287 22.1043 25.6989 22.1306C25.7694 22.1568 25.8421 22.1699 25.9168 22.1699C26.0218 22.1699 26.1007 22.1506 26.1531 22.1122C26.2056 22.0736 26.2319 22.0236 26.2319 21.9621C26.2319 21.9152 26.2177 21.8777 26.1892 21.8498C26.1607 21.822 26.1257 21.8004 26.0845 21.7853C26.0431 21.7703 25.9856 21.7537 25.9118 21.7358C25.8236 21.7136 25.7532 21.692 25.7007 21.6714C25.6481 21.6507 25.6031 21.6192 25.5657 21.5766C25.5284 21.5342 25.5096 21.4767 25.5096 21.4041C25.5096 21.3448 25.5252 21.2909 25.5564 21.2422C25.5878 21.1937 25.6358 21.1549 25.7007 21.1258C25.7654 21.0968 25.8459 21.0823 25.942 21.0823C26.0091 21.0823 26.0747 21.0915 26.1389 21.11C26.2032 21.1283 26.2587 21.1538 26.3056 21.1862L26.2637 21.285C26.2146 21.2527 26.1621 21.2284 26.1062 21.2121C26.0503 21.196 25.9956 21.1878 25.942 21.1878C25.8392 21.1878 25.7619 21.2077 25.7099 21.2474C25.6579 21.287 25.6319 21.3382 25.6319 21.4007C25.6319 21.4477 25.6461 21.4854 25.6746 21.5139C25.7031 21.5423 25.7389 21.564 25.7819 21.5791C25.825 21.5943 25.8827 21.6107 25.9553 21.6286C26.0415 21.6498 26.1109 21.6708 26.164 21.6914C26.2172 21.712 26.2621 21.7434 26.299 21.7853C26.3359 21.8272 26.3543 21.884 26.3543 21.9555C26.3543 22.0146 26.3383 22.0686 26.3065 22.1172C26.2747 22.1658 26.2257 22.2043 26.1599 22.2328C26.094 22.2613 26.013 22.2755 25.9168 22.2755ZM27.5401 21.0923C27.6898 21.0923 27.8071 21.128 27.892 21.1995C27.977 21.2712 28.0194 21.3693 28.0194 21.4946C28.0194 21.6197 27.977 21.7178 27.892 21.7887C27.8071 21.8597 27.6898 21.8951 27.5401 21.8951H27.225V22.2654H27.101V21.0923H27.5401ZM27.5367 21.7861C27.6529 21.7861 27.7417 21.7607 27.8031 21.7099C27.8646 21.659 27.8954 21.5872 27.8954 21.4946C27.8954 21.3996 27.8646 21.3266 27.8031 21.2759C27.7417 21.225 27.6529 21.1995 27.5367 21.1995H27.225V21.7861H27.5367ZM28.7644 21.0923H28.8884V22.2654H28.7644V21.0923ZM29.9754 21.1995H29.563V21.0923H30.5117V21.1995H30.0993V22.2654H29.9754V21.1995ZM31.8633 21.9521H31.2098L31.069 22.2654H30.94L31.4763 21.0923H31.5985L32.1348 22.2654H32.0042L31.8633 21.9521ZM31.8182 21.8515L31.5365 21.2213L31.255 21.8515H31.8182ZM32.8061 21.0923H32.9301V22.1581H33.5871V22.2654H32.8061V21.0923Z" fill="#D83235"/>
</svg>
