<svg width="100%" height="100%" viewBox="0 0 20 20" fill="none" xmlns="http://www.w3.org/2000/svg">
<path d="M17.5 16H2.5V14.5H3.25V9.27325C3.25 5.53225 6.2725 2.5 10 2.5C13.7275 2.5 16.75 5.53225 16.75 9.27325V14.5H17.5V16ZM4.75 14.5H15.25V9.27325C15.25 6.361 12.8995 4 10 4C7.1005 4 4.75 6.361 4.75 9.27325V14.5ZM8.125 16.75H11.875C11.875 17.2473 11.6775 17.7242 11.3258 18.0758C10.9742 18.4275 10.4973 18.625 10 18.625C9.50272 18.625 9.02581 18.4275 8.67417 18.0758C8.32254 17.7242 8.125 17.2473 8.125 16.75V16.75Z" fill="currentColor"/>
</svg>
