<svg width="100%" height="100%" viewBox="0 0 20 20" fill="none" xmlns="http://www.w3.org/2000/svg">
<path d="M6.46826 16.618L2.50001 17.5L3.38201 13.5317C2.80116 12.4453 2.49815 11.232 2.50001 10C2.50001 5.85775 5.85776 2.5 10 2.5C14.1423 2.5 17.5 5.85775 17.5 10C17.5 14.1422 14.1423 17.5 10 17.5C8.76802 17.5019 7.55472 17.1988 6.46826 16.618ZM6.68576 15.0332L7.17551 15.2957C8.04442 15.7601 9.0148 16.0021 10 16C11.1867 16 12.3467 15.6481 13.3334 14.9888C14.3201 14.3295 15.0892 13.3925 15.5433 12.2961C15.9974 11.1997 16.1162 9.99334 15.8847 8.82946C15.6532 7.66557 15.0818 6.59647 14.2426 5.75736C13.4035 4.91824 12.3344 4.3468 11.1706 4.11529C10.0067 3.88378 8.80026 4.0026 7.70391 4.45672C6.60755 4.91085 5.67048 5.67988 5.01119 6.66658C4.3519 7.65327 4.00001 8.81331 4.00001 10C4.00001 11.0005 4.24376 11.9635 4.70501 12.8245L4.96676 13.3142L4.47551 15.5245L6.68576 15.0332Z" fill="currentColor"/>
</svg>
