<svg width="100%" height="100%" viewBox="0 0 14 14" fill="none" xmlns="http://www.w3.org/2000/svg">
<g clip-path="url(#clip0_294_351)">
<path d="M0.875 5.23056C0.875 3.70597 0.875 2.94367 1.1717 2.36136C1.43269 1.84914 1.84914 1.43269 2.36136 1.1717C2.94367 0.875 3.70597 0.875 5.23056 0.875H8.76944C10.294 0.875 11.0563 0.875 11.6386 1.1717C12.1509 1.43269 12.5673 1.84914 12.8283 2.36136C13.125 2.94367 13.125 3.70597 13.125 5.23056V8.76944C13.125 10.294 13.125 11.0563 12.8283 11.6386C12.5673 12.1509 12.1509 12.5673 11.6386 12.8283C11.0563 13.125 10.294 13.125 8.76944 13.125H5.23056C3.70597 13.125 2.94367 13.125 2.36136 12.8283C1.84914 12.5673 1.43269 12.1509 1.1717 11.6386C0.875 11.0563 0.875 10.294 0.875 8.76944V5.23056Z" fill="white"/>
<path d="M9.64744 3.72876L7.02808 5.77294L4.34883 3.72876V3.72931L4.35207 3.73207V6.59448L6.99787 8.68287L9.64744 6.67515V3.72876Z" fill="#EA4335"/>
<path d="M10.3353 3.23154L9.64739 3.72878V6.67516L11.8119 5.0133V4.0122C11.8119 4.0122 11.5492 2.58238 10.3353 3.23154Z" fill="#FBBC05"/>
<path d="M9.64739 6.67523V10.4968H11.3064C11.3064 10.4968 11.7785 10.4481 11.8125 9.91002V5.01337L9.64739 6.67523Z" fill="#34A853"/>
<path d="M4.35219 10.5V6.5945L4.34883 6.59174L4.35219 10.5Z" fill="#C5221F"/>
<path d="M4.34881 3.72936L3.6647 3.23489C2.45078 2.58572 2.1875 4.01499 2.1875 4.01499V5.01609L4.34881 6.59177V3.72936Z" fill="#C5221F"/>
<path d="M4.34883 3.72931V6.59172L4.35219 6.59448V3.73207L4.34883 3.72931Z" fill="#C5221F"/>
<path d="M2.1875 5.0166V9.91325C2.22095 10.4519 2.69357 10.5 2.69357 10.5H4.35259L4.34881 6.59173L2.1875 5.0166Z" fill="#4285F4"/>
</g>
<defs>
<clipPath id="clip0_294_351">
<rect width="100%" height="100%" fill="white"/>
</clipPath>
</defs>
</svg>
