<svg width="100%" height="100%" viewBox="0 0 48 48" fill="none" xmlns="http://www.w3.org/2000/svg">
  <rect width="48" height="48" rx="24" fill="#FFEBEC"/>
  <path d="M22.1924 14.75H26.8076C27.0166 14.75 27.2174 14.8327 27.3652 14.9805C27.513 15.1282 27.5956 15.3291 27.5957 15.5381V20.9043H32.9619C33.1709 20.9044 33.3718 20.987 33.5195 21.1348C33.6673 21.2826 33.75 21.4834 33.75 21.6924V26.3076C33.75 26.5166 33.6673 26.7174 33.5195 26.8652C33.3718 27.013 33.1709 27.0956 32.9619 27.0957H27.5957V32.4619C27.5956 32.6709 27.513 32.8718 27.3652 33.0195C27.2174 33.1673 27.0166 33.25 26.8076 33.25H22.1924C21.9834 33.25 21.7826 33.1673 21.6348 33.0195C21.487 32.8718 21.4044 32.6709 21.4043 32.4619V27.0957H16.0381C15.8291 27.0956 15.6282 27.013 15.4805 26.8652C15.3327 26.7174 15.25 26.5166 15.25 26.3076V21.6924C15.25 21.4834 15.3327 21.2826 15.4805 21.1348C15.6282 20.987 15.8291 20.9044 16.0381 20.9043H21.4043V15.5381C21.4044 15.3291 21.487 15.1282 21.6348 14.9805C21.7826 14.8327 21.9834 14.75 22.1924 14.75Z" stroke="#F0373A" stroke-width="1.5"/>
  </svg>
  