<svg width="100%" height="100%" viewBox="0 0 48 48" fill="none" xmlns="http://www.w3.org/2000/svg">
  <rect width="48" height="48" rx="24" fill="#FFEE50" fill-opacity="0.2"/>
  <path d="M16 20H32M16 20V28.8002C16 29.9203 16 30.4801 16.218 30.9079C16.4097 31.2842 16.7155 31.5905 17.0918 31.7822C17.5192 32 18.079 32 19.1969 32H28.8031C29.921 32 30.48 32 30.9074 31.7822C31.2837 31.5905 31.5905 31.2842 31.7822 30.9079C32 30.4805 32 29.9215 32 28.8036V20M16 20V19.2002C16 18.0801 16 17.5196 16.218 17.0918C16.4097 16.7155 16.7155 16.4097 17.0918 16.218C17.5196 16 18.0801 16 19.2002 16H20M32 20V19.1969C32 18.079 32 17.5192 31.7822 17.0918C31.5905 16.7155 31.2837 16.4097 30.9074 16.218C30.4796 16 29.9203 16 28.8002 16H28M20 16H28M20 16V14M28 16V14M23.75 28C23.8881 28 24 27.8881 24 27.75V24.25C24 24.1119 23.8881 24 23.75 24H20.25C20.1119 24 20 24.1119 20 24.25V27.75C20 27.8881 20.1119 28 20.25 28H23.75Z" stroke="#FAAD14" stroke-width="1.5" stroke-linecap="round" stroke-linejoin="round"/>
  </svg>
  