<svg width="100%" height="100%" viewBox="0 0 20 20" fill="none" xmlns="http://www.w3.org/2000/svg">
<path d="M14.5 8.5C14.5 7.30653 14.0259 6.16193 13.182 5.31802C12.3381 4.47411 11.1935 4 10 4C8.80653 4 7.66193 4.47411 6.81802 5.31802C5.97411 6.16193 5.5 7.30653 5.5 8.5V14.5H14.5V8.5ZM16 15.0002L16.3 15.4C16.3418 15.4557 16.3672 15.522 16.3735 15.5913C16.3797 15.6607 16.3666 15.7304 16.3354 15.7927C16.3043 15.855 16.2564 15.9074 16.1971 15.944C16.1379 15.9806 16.0696 16 16 16H4C3.93036 16 3.86209 15.9806 3.80285 15.944C3.74361 15.9074 3.69573 15.855 3.66459 15.7927C3.63345 15.7304 3.62026 15.6607 3.62652 15.5913C3.63277 15.522 3.65821 15.4557 3.7 15.4L4 15.0002V8.5C4 6.9087 4.63214 5.38258 5.75736 4.25736C6.88258 3.13214 8.4087 2.5 10 2.5C11.5913 2.5 13.1174 3.13214 14.2426 4.25736C15.3679 5.38258 16 6.9087 16 8.5V15.0002ZM8.125 16.75H11.875C11.875 17.2473 11.6775 17.7242 11.3258 18.0758C10.9742 18.4275 10.4973 18.625 10 18.625C9.50272 18.625 9.02581 18.4275 8.67417 18.0758C8.32254 17.7242 8.125 17.2473 8.125 16.75V16.75Z" fill="#5C5C5C"/>
</svg>
