<svg width="100%" height="100%" viewBox="0 0 20 20" fill="none" xmlns="http://www.w3.org/2000/svg">
<path d="M13.5378 6.62937C13.9497 6.47993 14.1541 6.42614 14.2674 6.40691C14.2682 6.44312 14.2674 6.47248 14.2655 6.49175C14.104 8.18891 13.3963 12.3644 13.0329 14.3073C12.9478 14.7623 12.8825 14.9789 12.4431 14.7207C12.1538 14.5507 11.8921 14.3368 11.6117 14.153C10.6918 13.55 9.37508 12.6519 9.4832 12.7059C8.57759 12.1091 8.95668 11.7437 9.46223 11.2564C9.54411 11.1775 9.62925 11.0954 9.71279 11.0086C9.75008 10.9698 9.93251 10.8002 10.1897 10.5611C11.0148 9.794 12.6092 8.31173 12.6495 8.1402C12.6561 8.11206 12.6622 8.00716 12.5998 7.95177C12.5375 7.89638 12.4456 7.91532 12.3792 7.93038C12.2851 7.95174 10.7866 8.9422 7.88371 10.9017C7.45837 11.1938 7.07311 11.3362 6.72793 11.3287L6.73102 11.3302C6.27634 11.1698 5.82293 11.0318 5.36713 10.893C5.06769 10.8017 4.76723 10.7102 4.46469 10.6118C4.3907 10.5878 4.3185 10.565 4.25066 10.5437C7.39439 9.17414 9.48827 8.27243 10.5375 7.83602C12.0615 7.20216 12.9654 6.83707 13.5378 6.62937ZM15.2201 5.29022C15.0442 5.14743 14.8508 5.0819 14.7164 5.0498C14.5776 5.01666 14.4458 5.00599 14.3458 5.00775C14.0149 5.01358 13.6596 5.10767 13.064 5.32377C12.4565 5.54422 11.523 5.92187 10.0041 6.55363C8.93327 6.99903 6.80138 7.91737 3.61373 9.30616C3.33373 9.4181 3.07707 9.54511 2.87427 9.69567C2.68702 9.83477 2.42489 10.0836 2.37694 10.4662C2.34072 10.755 2.42495 11.0217 2.59579 11.2317C2.74451 11.4145 2.93504 11.5255 3.08014 11.5958C3.29553 11.7001 3.58533 11.7909 3.84002 11.8708C4.23802 11.9955 4.63511 12.123 5.03396 12.245C6.26877 12.623 7.28526 12.9341 8.40369 13.6712C9.22404 14.2118 10.0286 14.7759 10.8503 15.3146C11.15 15.511 11.4301 15.7365 11.7396 15.9182C12.0776 16.1168 12.5073 16.298 13.0304 16.2498C13.8208 16.1771 14.2321 15.4498 14.3981 14.5626C14.7606 12.6246 15.4799 8.39123 15.6481 6.62334C15.6701 6.39257 15.6444 6.13393 15.623 6.00906C15.601 5.88046 15.5337 5.54468 15.2201 5.29022Z" fill="#171717"/>
</svg>
