<svg width="100%" height="100%" viewBox="0 0 20 20" fill="none" xmlns="http://www.w3.org/2000/svg">
<path d="M7.51447 4L9.46972 2.04475C9.61037 1.90415 9.8011 1.82516 9.99997 1.82516C10.1988 1.82516 10.3896 1.90415 10.5302 2.04475L12.4855 4H15.25C15.4489 4 15.6397 4.07902 15.7803 4.21967C15.921 4.36033 16 4.55109 16 4.75V7.5145L17.9552 9.46975C18.0958 9.6104 18.1748 9.80113 18.1748 10C18.1748 10.1989 18.0958 10.3896 17.9552 10.5303L16 12.4855V15.25C16 15.4489 15.921 15.6397 15.7803 15.7803C15.6397 15.921 15.4489 16 15.25 16H12.4855L10.5302 17.9553C10.3896 18.0959 10.1988 18.1748 9.99997 18.1748C9.8011 18.1748 9.61037 18.0959 9.46972 17.9553L7.51447 16H4.74997C4.55106 16 4.3603 15.921 4.21964 15.7803C4.07899 15.6397 3.99997 15.4489 3.99997 15.25V12.4855L2.04472 10.5303C1.90412 10.3896 1.82513 10.1989 1.82513 10C1.82513 9.80113 1.90412 9.6104 2.04472 9.46975L3.99997 7.5145V4.75C3.99997 4.55109 4.07899 4.36033 4.21964 4.21967C4.3603 4.07902 4.55106 4 4.74997 4H7.51447ZM5.49997 5.5V8.13625L3.63622 10L5.49997 11.8638V14.5H8.13622L9.99997 16.3638L11.8637 14.5H14.5V11.8638L16.3637 10L14.5 8.13625V5.5H11.8637L9.99997 3.63625L8.13622 5.5H5.49997ZM9.99997 13C9.20432 13 8.44126 12.6839 7.87865 12.1213C7.31604 11.5587 6.99997 10.7957 6.99997 10C6.99997 9.20435 7.31604 8.44129 7.87865 7.87868C8.44126 7.31607 9.20432 7 9.99997 7C10.7956 7 11.5587 7.31607 12.1213 7.87868C12.6839 8.44129 13 9.20435 13 10C13 10.7957 12.6839 11.5587 12.1213 12.1213C11.5587 12.6839 10.7956 13 9.99997 13ZM9.99997 11.5C10.3978 11.5 10.7793 11.342 11.0606 11.0607C11.3419 10.7794 11.5 10.3978 11.5 10C11.5 9.60218 11.3419 9.22065 11.0606 8.93934C10.7793 8.65804 10.3978 8.5 9.99997 8.5C9.60215 8.5 9.22062 8.65804 8.93931 8.93934C8.65801 9.22065 8.49997 9.60218 8.49997 10C8.49997 10.3978 8.65801 10.7794 8.93931 11.0607C9.22062 11.342 9.60215 11.5 9.99997 11.5Z" fill="currentColor"/>
</svg>
