<svg width="100%" height="100%" viewBox="0 0 20 20" fill="none" xmlns="http://www.w3.org/2000/svg">
<path d="M8.75437 3.81495C7.8784 3.53138 6.92613 3.92582 6.50722 4.74575L6.00361 5.73148C5.94377 5.84861 5.84852 5.94387 5.73139 6.0037L4.74566 6.50732C3.92572 6.92622 3.53129 7.87849 3.81485 8.75446L4.15577 9.80759C4.19627 9.93271 4.19627 10.0675 4.15577 10.1926L3.81485 11.2457C3.53129 12.1217 3.92572 13.074 4.74566 13.4929L5.73139 13.9965C5.84852 14.0563 5.94377 14.1516 6.00361 14.2687L6.50722 15.2545C6.92613 16.0744 7.8784 16.4688 8.75437 16.1853L9.8075 15.8443C9.93262 15.8038 10.0674 15.8038 10.1925 15.8443L11.2456 16.1853C12.1216 16.4688 13.0739 16.0744 13.4928 15.2545L13.9964 14.2687C14.0562 14.1516 14.1515 14.0563 14.2686 13.9965L15.2544 13.4929C16.0743 13.074 16.4687 12.1217 16.1852 11.2457L15.8442 10.1926C15.8037 10.0675 15.8037 9.93271 15.8442 9.80759L16.1852 8.75446C16.4687 7.87849 16.0743 6.92622 15.2544 6.50732L14.2686 6.0037C14.1515 5.94387 14.0562 5.84861 13.9964 5.73148L13.4928 4.74575C13.0739 3.92582 12.1216 3.53138 11.2456 3.81495L10.1925 4.15586C10.0674 4.19636 9.93262 4.19637 9.8075 4.15586L8.75437 3.81495ZM6.72485 9.8484L7.60874 8.96447L9.3765 10.7323L12.9121 7.19675L13.7959 8.08063L9.3765 12.5L6.72485 9.8484Z" fill="#47C2FF"/>
</svg>
