<svg width="100%" height="100%" viewBox="0 0 20 20" fill="none" xmlns="http://www.w3.org/2000/svg">
<path d="M15.3565 7.31116L15.1853 7.70399C15.06 7.99158 14.6622 7.99158 14.5369 7.70399L14.3657 7.31116C14.0605 6.61072 13.5108 6.05304 12.8248 5.74795L12.2972 5.51332C12.012 5.38645 12.012 4.97137 12.2972 4.8445L12.7953 4.62299C13.4989 4.31005 14.0585 3.73173 14.3584 3.00749L14.5342 2.58298C14.6568 2.28712 15.0654 2.28712 15.1879 2.58298L15.3638 3.00749C15.6638 3.73173 16.2233 4.31005 16.9269 4.62299L17.4249 4.8445C17.7102 4.97137 17.7102 5.38645 17.4249 5.51332L16.8974 5.74795C16.2115 6.05304 15.6617 6.61072 15.3565 7.31116ZM4.43986 3.74997H10.6944V5.13886H5.13889V14.8611H14.8611V9.30553H16.25V15.5601C16.25 15.9411 15.941 16.25 15.5601 16.25H4.43986C4.05886 16.25 3.75 15.941 3.75 15.5601V4.43983C3.75 4.05883 4.05899 3.74997 4.43986 3.74997ZM9.04299 7.5101L12.4311 9.76886C12.5588 9.85393 12.5933 10.0264 12.5081 10.1541C12.4878 10.1846 12.4616 10.2107 12.4311 10.2311L9.04299 12.4898C8.91535 12.575 8.74285 12.5405 8.65778 12.4128C8.62736 12.3672 8.61111 12.3136 8.61111 12.2587V7.74123C8.61111 7.58781 8.73549 7.46345 8.88889 7.46345C8.94375 7.46345 8.99736 7.47968 9.04299 7.5101Z" fill="currentColor"/>
</svg>
