<svg width="100%" height="100%" viewBox="0 0 20 20" fill="none" xmlns="http://www.w3.org/2000/svg">
<path d="M13.4722 8.05545L17.0925 5.52122C17.2496 5.41125 17.4662 5.44945 17.5761 5.60656C17.6169 5.66492 17.6389 5.73443 17.6389 5.80568V14.1941C17.6389 14.3859 17.4834 14.5413 17.2916 14.5413C17.2204 14.5413 17.1509 14.5194 17.0925 14.4786L13.4722 11.9443V14.861C13.4722 15.2445 13.1613 15.5554 12.7778 15.5554H3.05553C2.672 15.5554 2.36108 15.2445 2.36108 14.861V5.13878C2.36108 4.75525 2.672 4.44434 3.05553 4.44434H12.7778C13.1613 4.44434 13.4722 4.75525 13.4722 5.13878V8.05545ZM13.4722 10.249L16.25 12.1934V7.80636L13.4722 9.75079V10.249ZM3.74997 5.83322V14.1666H12.0833V5.83322H3.74997Z" fill="#5C5C5C"/>
</svg>
